<svg id="Layer_1" data-name="Layer 1" xmlns="http://www.w3.org/2000/svg" viewBox="0 0 198.97 60.51" width="300px"><defs><style>.cls-1{fill-rule:evenodd;}.cls-2{fill:#4c017c;}</style></defs><title>UW-Statistics-Logo-Color-trimmed</title><path class="cls-1" d="M10.62,61.62q-1,0-2.22-.12c-.8-.07-1.6-.18-2.4-.32s-1.6-.3-2.38-.48-1.49-.39-2.11-.6l.28-1.94c.56.18,1.19.36,1.92.55s1.48.34,2.29.46,1.59.23,2.37.3a21.88,21.88,0,0,0,2.2.12,8.73,8.73,0,0,0,5.82-1.78,6.35,6.35,0,0,0,2.08-5.11A6.77,6.77,0,0,0,18,50a6.53,6.53,0,0,0-1.5-2.12A11.55,11.55,0,0,0,14,46.14a29,29,0,0,0-3.39-1.52,26.51,26.51,0,0,1-3.93-1.73,10.6,10.6,0,0,1-2.63-2,6.57,6.57,0,0,1-1.48-2.42,10.3,10.3,0,0,1,.25-6.86,8.57,8.57,0,0,1,2-2.92A9,9,0,0,1,8,26.83a12.13,12.13,0,0,1,4.08-.64,25.84,25.84,0,0,1,3.42.23c1.2.15,2.5.38,3.88.69l-.23,2a33.17,33.17,0,0,0-7-1,8.12,8.12,0,0,0-5.73,2,6.77,6.77,0,0,0-2.12,5.24,6.6,6.6,0,0,0,.39,2.36A5.39,5.39,0,0,0,6,39.63a9.34,9.34,0,0,0,2.29,1.62,29.66,29.66,0,0,0,3.44,1.48,30.09,30.09,0,0,1,3.9,1.75,12.31,12.31,0,0,1,2.82,2.06,7.25,7.25,0,0,1,1.69,2.63,10,10,0,0,1,.55,3.49A8.41,8.41,0,0,1,18,59.26q-2.64,2.35-7.39,2.36ZM32.74,28.87H23v-2H44.62v2H34.87V61H32.74V28.87Zm15.36,19,7-21H58L65,48a20.89,20.89,0,0,0-3.44-3.86l-3.29-9.88L56.63,29h-.19l-1.66,5.31L51.57,43.9a18.23,18.23,0,0,0-3.47,4Zm29.69-19H68v-2H89.66v2H79.91V61H77.79V28.87Zm16.44-2h2.13V61H94.23V26.83Zm16.91,34.79q-1,0-2.22-.12c-.8-.07-1.6-.18-2.4-.32s-1.59-.3-2.38-.48-1.48-.39-2.1-.6l.28-1.94c.55.18,1.19.36,1.91.55s1.49.34,2.29.46,1.59.23,2.38.3a21.85,21.85,0,0,0,2.19.12,8.69,8.69,0,0,0,5.82-1.78A6.35,6.35,0,0,0,119,52.7a7,7,0,0,0-.5-2.7A6.41,6.41,0,0,0,117,47.88a11.47,11.47,0,0,0-2.44-1.74,29.2,29.2,0,0,0-3.4-1.52,26.51,26.51,0,0,1-3.93-1.73,11,11,0,0,1-2.63-2,6.71,6.71,0,0,1-1.48-2.42,10.4,10.4,0,0,1,.26-6.86,8.3,8.3,0,0,1,2-2.92,9,9,0,0,1,3.14-1.87,12.23,12.23,0,0,1,4.09-.64,25.84,25.84,0,0,1,3.42.23c1.2.15,2.49.38,3.88.69l-.23,2a33.33,33.33,0,0,0-7-1,8.09,8.09,0,0,0-5.73,2,6.78,6.78,0,0,0-2.13,5.24,6.6,6.6,0,0,0,.39,2.36,5.67,5.67,0,0,0,1.27,1.89,9.53,9.53,0,0,0,2.29,1.62,30.43,30.43,0,0,0,3.44,1.48,30.89,30.89,0,0,1,3.91,1.75,12.24,12.24,0,0,1,2.81,2.06,7.12,7.12,0,0,1,1.69,2.63,10,10,0,0,1,.56,3.49,8.39,8.39,0,0,1-2.64,6.6c-1.75,1.57-4.22,2.36-7.39,2.36Zm22.13-32.75h-9.79v-2h21.66v2h-9.75V61h-2.12V28.87Zm16.45-2h2.12V61h-2.12V26.83Zm22.63,34.61q-7.4-.06-10.81-4.28T158.12,44A33.25,33.25,0,0,1,159,36a13.75,13.75,0,0,1,2.57-5.45A10,10,0,0,1,166,27.46a18.76,18.76,0,0,1,6.45-1c.8,0,1.68.05,2.63.14s1.93.22,2.91.37v2a23.79,23.79,0,0,0-2.56-.37c-.94-.09-1.86-.14-2.75-.14a15.65,15.65,0,0,0-5.59.88,8.73,8.73,0,0,0-3.81,2.75A12,12,0,0,0,161,36.9a31.56,31.56,0,0,0-.69,7.07q0,8,2.91,11.74t9.1,3.74c.31,0,.69,0,1.16-.05l1.47-.11c.53,0,1-.11,1.55-.19l1.41-.21v1.94a20.84,20.84,0,0,1-2.61.44,25.59,25.59,0,0,1-3,.17Zm18.11.18q-1,0-2.22-.12c-.8-.07-1.6-.18-2.4-.32s-1.59-.3-2.38-.48-1.48-.39-2.1-.6l.28-1.94c.55.18,1.19.36,1.91.55s1.49.34,2.29.46,1.6.23,2.38.3a21.85,21.85,0,0,0,2.19.12,8.74,8.74,0,0,0,5.83-1.78,6.38,6.38,0,0,0,2.07-5.11,7,7,0,0,0-.5-2.7,6.41,6.41,0,0,0-1.51-2.12,11.47,11.47,0,0,0-2.44-1.74,29.2,29.2,0,0,0-3.4-1.52,26.51,26.51,0,0,1-3.93-1.73,11,11,0,0,1-2.63-2,6.71,6.71,0,0,1-1.48-2.42,10.4,10.4,0,0,1,.26-6.86,8.3,8.3,0,0,1,2-2.92,9,9,0,0,1,3.14-1.87,12.23,12.23,0,0,1,4.09-.64,25.84,25.84,0,0,1,3.42.23c1.2.15,2.49.38,3.88.69l-.23,2a33.33,33.33,0,0,0-7-1,8.09,8.09,0,0,0-5.73,2,6.78,6.78,0,0,0-2.13,5.24,6.6,6.6,0,0,0,.39,2.36,5.67,5.67,0,0,0,1.27,1.89,9.53,9.53,0,0,0,2.29,1.62,30.43,30.43,0,0,0,3.44,1.48,30.89,30.89,0,0,1,3.91,1.75,12.53,12.53,0,0,1,2.82,2.06,7.22,7.22,0,0,1,1.68,2.63,10,10,0,0,1,.56,3.49,8.39,8.39,0,0,1-2.64,6.6c-1.75,1.57-4.22,2.36-7.39,2.36Z" transform="translate(-1.51 -1.11)"/><path class="cls-1" d="M82.49,16.72c-.5,0-1,0-1.5,0s-1-.08-1.47-.15v-14c.71-.09,1.35-.16,1.92-.2s1.09-.07,1.54-.07a9,9,0,0,1,3,.43A4.84,4.84,0,0,1,88,4a5.39,5.39,0,0,1,1.18,2.24,12.29,12.29,0,0,1,.38,3.23,11.63,11.63,0,0,1-.4,3.28A5.14,5.14,0,0,1,87.89,15a5.2,5.2,0,0,1-2.2,1.3,10.68,10.68,0,0,1-3.2.41Zm.62-1.62a6,6,0,0,0,2-.31,3.09,3.09,0,0,0,1.38-1,4.38,4.38,0,0,0,.79-1.74,11.24,11.24,0,0,0,.26-2.57,11.88,11.88,0,0,0-.24-2.57,4.37,4.37,0,0,0-.76-1.73,2.93,2.93,0,0,0-1.34-1,5.75,5.75,0,0,0-2-.3c-.29,0-.59,0-.89,0s-.6,0-.89.09V15l.88.09.78,0Zm12.67,1.53a4.05,4.05,0,0,1-3.25-1.3,5.71,5.71,0,0,1-1.12-3.82,6.41,6.41,0,0,1,1.1-4,3.85,3.85,0,0,1,3.21-1.38q3.57,0,3.57,4.54c0,.31,0,.58,0,.79s0,.42-.07.63H93.32A4,4,0,0,0,94,14.4a2.36,2.36,0,0,0,1.9.72A7.57,7.57,0,0,0,97.29,15a12.5,12.5,0,0,0,1.53-.41l.1,1.47a8.2,8.2,0,0,1-1.51.43,8.41,8.41,0,0,1-1.63.16Zm-.11-9.09c-1.43,0-2.2,1.06-2.33,3.17h4.22a5.23,5.23,0,0,0-.49-2.44,1.5,1.5,0,0,0-1.4-.73Zm5.84-1.29h1.7l.11,1.08h.1a3.29,3.29,0,0,1,1.19-.93,3.78,3.78,0,0,1,1.58-.32q3.6,0,3.6,5.05a8.27,8.27,0,0,1-.29,2.24,4.91,4.91,0,0,1-.87,1.74,4,4,0,0,1-1.48,1.13,5.09,5.09,0,0,1-2.11.41,7.57,7.57,0,0,1-.81,0,6.88,6.88,0,0,1-.81-.11v4.12h-1.91V6.25Zm3.57,9a2.43,2.43,0,0,0,2.09-.92,5.3,5.3,0,0,0,.67-3,5.91,5.91,0,0,0-.53-2.9,1.8,1.8,0,0,0-1.68-.88,2.22,2.22,0,0,0-1.57.6,2.39,2.39,0,0,0-.64,1.82v5.12a6.19,6.19,0,0,0,.81.14,8.24,8.24,0,0,0,.85.05Zm8.94,1.3a2.53,2.53,0,0,1-1.92-.72,2.86,2.86,0,0,1-.69-2q0-2.91,3.67-3.15l2-.13V9.77a4.36,4.36,0,0,0-.1-1,1.48,1.48,0,0,0-.35-.67,1.39,1.39,0,0,0-.65-.37,3.74,3.74,0,0,0-1-.11,10.87,10.87,0,0,0-1.27.08,13.73,13.73,0,0,0-1.43.24l-.13-1.46c.55-.1,1.1-.18,1.63-.23a13.89,13.89,0,0,1,1.53-.09,4.2,4.2,0,0,1,2.8.78,3.12,3.12,0,0,1,.9,2.47v7.09H117.4l-.17-1.25h-.13a6.76,6.76,0,0,1-1.45,1,3.71,3.71,0,0,1-1.63.38Zm.7-1.45a1.89,1.89,0,0,0,.6-.1,3.81,3.81,0,0,0,.64-.24c.2-.1.4-.21.59-.33l.53-.33V11.71l-1.53.14a3,3,0,0,0-1.72.52,1.53,1.53,0,0,0-.51,1.25c0,1,.47,1.48,1.4,1.48Zm6.92-8.85h1.6l.14,1.34h.09a11.9,11.9,0,0,1,1.36-.84,8.41,8.41,0,0,1,1.65-.67H127V7.93h-.72a6.36,6.36,0,0,0-1.47.38,5.67,5.67,0,0,0-1.21.63v7.52h-1.91V6.25Zm10.83,10.34c-1.93,0-2.89-.95-2.89-2.85V7.9h-1.84V6.25h2L130,3.61l1.52-.23V6.25h2.59V7.9h-2.57v5.44c0,1.16.49,1.74,1.49,1.74a3.46,3.46,0,0,0,.52,0,2.68,2.68,0,0,0,.56-.13V16.4a5.14,5.14,0,0,1-.8.14,5.41,5.41,0,0,1-.79.05Zm3.46-10.34h1.57l.11,1.12h.08a10.05,10.05,0,0,1,1.84-1,4.13,4.13,0,0,1,1.54-.32,2.06,2.06,0,0,1,2.15,1.35h.1a8.5,8.5,0,0,1,1.81-1,4.28,4.28,0,0,1,1.57-.32,2.29,2.29,0,0,1,1.79.66,3,3,0,0,1,.59,2.07v7.67h-1.87V9.39a2,2,0,0,0-.32-1.28,1.22,1.22,0,0,0-1-.38,4.72,4.72,0,0,0-2.46.9v7.83h-1.89V9.39a2.06,2.06,0,0,0-.31-1.28,1.19,1.19,0,0,0-1-.38,3.62,3.62,0,0,0-1.19.23,6.64,6.64,0,0,0-1.29.67v7.83h-1.87V6.25Zm19.73,10.38a4.07,4.07,0,0,1-3.25-1.3,5.76,5.76,0,0,1-1.11-3.82,6.41,6.41,0,0,1,1.09-4,3.86,3.86,0,0,1,3.22-1.38q3.57,0,3.57,4.54c0,.31,0,.58,0,.79s0,.42-.07.63H153.2a4,4,0,0,0,.71,2.36,2.37,2.37,0,0,0,1.9.72,7.57,7.57,0,0,0,1.36-.14,12.17,12.17,0,0,0,1.54-.41L158.8,16a8.09,8.09,0,0,1-1.5.43,8.51,8.51,0,0,1-1.64.16Zm-.11-9.09c-1.43,0-2.2,1.06-2.33,3.17h4.22A5.39,5.39,0,0,0,157,8.27a1.53,1.53,0,0,0-1.41-.73Zm5.84-1.29H163l.13,1.12h.07a12,12,0,0,1,2-1,4.51,4.51,0,0,1,1.62-.31,2.25,2.25,0,0,1,1.78.66,3.08,3.08,0,0,1,.59,2.07v7.67h-1.89V9.37A2,2,0,0,0,167,8.09a1.12,1.12,0,0,0-1-.38,3.68,3.68,0,0,0-1.29.25,9.43,9.43,0,0,0-1.45.69v7.81h-1.91V6.25Zm14.27,10.34c-1.93,0-2.89-.95-2.89-2.85V7.9h-1.83V6.25h1.94l.27-2.64,1.51-.23V6.25h2.59V7.9h-2.57v5.44c0,1.16.5,1.74,1.49,1.74a3.37,3.37,0,0,0,.52,0,2.54,2.54,0,0,0,.56-.13V16.4a5,5,0,0,1-.79.14,5.63,5.63,0,0,1-.8.05Zm11.15.06a4,4,0,0,1-3.23-1.35,6.09,6.09,0,0,1-1.11-3.94,6.12,6.12,0,0,1,1.11-3.95,4.56,4.56,0,0,1,6.48,0,6.18,6.18,0,0,1,1.1,3.95,6.14,6.14,0,0,1-1.1,3.94,4,4,0,0,1-3.25,1.35Zm0-1.53a2.06,2.06,0,0,0,1.85-.87,5.5,5.5,0,0,0,.57-2.89,5.64,5.64,0,0,0-.56-2.9,2.41,2.41,0,0,0-3.71,0,5.52,5.52,0,0,0-.57,2.9,5.5,5.5,0,0,0,.57,2.89,2.05,2.05,0,0,0,1.85.87Zm7.36-7.24H192.5V6.25h1.69V5.63a8.8,8.8,0,0,1,.21-2.09,3,3,0,0,1,.73-1.36,3.11,3.11,0,0,1,1.36-.77,9.73,9.73,0,0,1,2.14-.3l.07,1.46a5.58,5.58,0,0,0-1.29.21,1.84,1.84,0,0,0-.8.49,1.67,1.67,0,0,0-.42.84,6.12,6.12,0,0,0-.11,1.33v.81h2.19V7.88h-2.19v8.58h-1.91V7.88Z" transform="translate(-1.51 -1.11)"/><path class="cls-2" d="M74.92,61c-5.25,0-8.44-4.63-11.27-8.72-2.31-3.35-4.49-6.51-7.28-6.6-2.64.09-4.51,2.93-6.67,6.21-2.8,4.25-6,9.06-12.08,9.1l0-2.2c4.93,0,7.64-4.14,10.26-8.11,2.4-3.64,4.66-7.07,8.51-7.2,4,.13,6.58,3.9,9.09,7.55,2.7,3.9,5.49,7.94,9.74,7.77L75.28,61Z" transform="translate(-1.51 -1.11)"/></svg>
